<?xml version="1.0" standalone="no"?>
<!DOCTYPE svg PUBLIC "-//W3C//DTD SVG 1.1//EN" "http://www.w3.org/Graphics/SVG/1.1/DTD/svg11.dtd" >
<svg xmlns="http://www.w3.org/2000/svg">
<metadata></metadata>
<defs>
<font id="bluehost_sans400" horiz-adv-x="1575" >
<font-face units-per-em="2048" ascent="1638" descent="-410" />
<missing-glyph horiz-adv-x="539" />
<glyph horiz-adv-x="2048" />
<glyph horiz-adv-x="2048" />
<glyph unicode="&#xd;" horiz-adv-x="2048" />
<glyph unicode=" "  horiz-adv-x="539" />
<glyph unicode="&#x09;" horiz-adv-x="539" />
<glyph unicode="&#xa0;" horiz-adv-x="539" />
<glyph unicode="!" horiz-adv-x="460" d="M105 -1v180h170v-180h-170zM106 1386h184l-36 -1060h-123z" />
<glyph unicode="&#x22;" horiz-adv-x="383" d="M9 1235v150h148v-150l-28 -227h-89zM226 1235v150h147v-150l-28 -227h-89z" />
<glyph unicode="#" horiz-adv-x="1286" d="M31 373v127h237l78 362h-255v128h280l76 359h126l-75 -359h418l75 359h129l-77 -359h226v-128h-252l-77 -362h269v-127h-295l-78 -373h-128l80 373h-419l-77 -373h-128l79 373h-212zM395 500h418l78 362h-419z" />
<glyph unicode="$" horiz-adv-x="1090" d="M63 160l83 113q156 -135 326 -164l13 567l-15 6q-62 28 -104.5 50t-91.5 57t-78 71.5t-48 87.5t-17 111q4 143 106.5 241t262.5 115l3 125h123l-2 -125q156 -16 303 -110l-66 -120q-114 78 -240 93l-9 -490q51 -22 84 -37.5t79.5 -41.5t76.5 -49t63.5 -56.5t52 -68.5 t31 -81t11.5 -98q-2 -168 -117.5 -273.5t-296.5 -115.5l-2 -140h-128l3 145q-224 30 -406 188zM288 1062q-1 -73 51 -123t149 -96l9 432q-96 -18 -152.5 -77.5t-56.5 -135.5zM599 105q109 13 179 75t71 161q1 96 -62 160t-178 119z" />
<glyph unicode="%" horiz-adv-x="1438" d="M34 1066q0 135 99 230.5t238 95.5q140 0 238 -94.5t98 -231.5t-98 -234t-239 -97q-137 0 -236.5 96.5t-99.5 234.5zM74 0l1100 1386h167l-1097 -1386h-170zM174 1064q0 -88 56.5 -148.5t139.5 -60.5t139 60.5t56 148.5q0 87 -57 147.5t-138 60.5t-138.5 -60t-57.5 -148z M727 323q0 136 98 233t240 97q138 0 238 -97.5t100 -232.5q0 -133 -99 -229.5t-239 -96.5t-239 95t-99 231zM870 325q0 -88 57 -148.5t138 -60.5q83 0 141 60.5t58 148.5q0 87 -58 148t-141 61q-81 0 -138 -61t-57 -148z" />
<glyph unicode="&#x26;" horiz-adv-x="1462" d="M108 349q0 124 89 226.5t236 169.5q-75 73 -117.5 146t-42.5 165q0 148 109.5 247t269.5 102q158 4 264 -90.5t106 -226.5q0 -104 -77.5 -203.5t-243.5 -171.5l339 -342q85 93 135 221l145 -58q-73 -170 -175 -275l260 -259h-245l-140 141q-194 -168 -435 -168 q-209 0 -343 110t-134 266zM285 355q0 -102 90.5 -173.5t222.5 -71.5q171 0 321 139l-385 389q-105 -51 -177 -122t-72 -161zM449 1067q3 -67 44 -128t112 -125q261 122 263 274q1 78 -59 134.5t-154 52.5q-98 -4 -154 -65t-52 -143z" />
<glyph unicode="'" horiz-adv-x="183" d="M17 1234v150h148v-150l-28 -227h-89z" />
<glyph unicode="(" horiz-adv-x="602" d="M100 457q0 123 28 245t67.5 214t101.5 191.5t109 160.5t112 137h149q-86 -108 -150 -207.5t-120.5 -218.5t-86.5 -250t-30 -268q0 -118 23.5 -233.5t58.5 -206.5t90 -188t102.5 -164.5t111.5 -149.5h-148q-83 92 -148.5 181.5t-131 209t-102 260t-36.5 287.5z" />
<glyph unicode=")" horiz-adv-x="602" d="M-46 -481q64 82 111.5 149.5t102.5 164.5t90 188t58.5 206.5t23.5 233.5q0 137 -30 268t-86.5 250t-120.5 218.5t-149 207.5h148q65 -76 112.5 -137.5t109 -160t101 -191t67.5 -214.5t28 -245q0 -147 -36.5 -287.5t-101.5 -259.5t-131 -209.5t-149 -181.5h-148z" />
<glyph unicode="*" horiz-adv-x="384" d="M-1 1221l31 85l102 -37v117h94v-118l103 36l28 -86l-104 -35l66 -98l-75 -55l-66 100l-64 -97l-76 54l67 97z" />
<glyph unicode="+" horiz-adv-x="1304" d="M115 651h466v-469h139v469h468v136h-468v468h-139v-468h-466v-136z" />
<glyph unicode="," horiz-adv-x="273" d="M35 -143q94 32 92 143h-85v195h191v-170q0 -84 -54 -150t-144 -78v60z" />
<glyph unicode="-" horiz-adv-x="709" d="M43 503v131h623v-131h-623z" />
<glyph unicode="." horiz-adv-x="265" d="M40 -1v195h185v-195h-185z" />
<glyph unicode="/" horiz-adv-x="972" d="M19 -21l755 1428h151l-755 -1428h-151z" />
<glyph unicode="0" horiz-adv-x="1262" d="M119 695q0 212 66 375.5t183.5 252t267.5 88.5q226 0 366.5 -196t140.5 -520q0 -328 -139.5 -522t-367.5 -194q-229 0 -373 194t-144 522zM287 695q0 -154 37.5 -283.5t118.5 -213.5t193 -84q109 0 188 81t115.5 210t36.5 290q0 160 -38 289.5t-116.5 210t-185.5 80.5 t-188 -82.5t-121 -212.5t-40 -285z" />
<glyph unicode="1" horiz-adv-x="617" d="M74 1226l187 160h156v-1386h-157v1210l-106 -91z" />
<glyph unicode="2" horiz-adv-x="999" d="M79 0l1 130l455 543q63 76 97 122.5t64.5 115t30.5 128.5q0 97 -63 160t-158 63q-90 0 -160.5 -59t-96.5 -152l-142 62q48 137 156.5 215.5t246.5 78.5q163 0 270.5 -104t107.5 -266q0 -63 -16.5 -122t-50 -116.5t-64.5 -99t-79 -98.5l-384 -464h601v-137h-816z" />
<glyph unicode="3" horiz-adv-x="1024" d="M82 133l84 111q143 -129 313 -129q125 1 206.5 74.5t81.5 189.5q0 124 -91.5 203t-218.5 79h-128l1 140h121q120 0 199 68.5t79 177.5q0 100 -68.5 166t-178.5 66q-131 0 -249 -106l-84 103q158 139 347 139q171 0 281.5 -103t110.5 -258q0 -121 -68 -202.5t-163 -109.5 q50 -15 95 -43.5t86.5 -72t66 -109t24.5 -143.5q0 -123 -60.5 -214.5t-159 -137t-220.5 -45.5q-111 0 -216.5 39.5t-190.5 116.5z" />
<glyph unicode="4" horiz-adv-x="1127" d="M83 318v136l636 932h126v-931h175v-137h-175v-318h-161v318h-601zM236 455h448v671z" />
<glyph unicode="5" horiz-adv-x="1133" d="M132 130l71 115q156 -122 327 -122q145 0 233 90.5t88 214.5q0 131 -93 220t-254 89q-144 0 -297 -73v722h719l-1 -137h-558v-416q118 39 219 37q193 -4 309.5 -127.5t116.5 -307.5q0 -192 -134.5 -320.5t-338.5 -128.5q-215 0 -407 144z" />
<glyph unicode="6" horiz-adv-x="1121" d="M119 473q-2 275 172 526t466 381l71 -134q-394 -180 -510 -530q51 55 130 91t172 37q185 1 301.5 -125.5t116.5 -309.5q0 -131 -63.5 -235.5t-168.5 -160t-231 -55.5q-204 1 -330 144.5t-126 370.5zM282 399q2 -127 85.5 -213t209.5 -86q127 -1 213.5 87t87.5 218 q0 128 -85 215.5t-209 86.5t-213.5 -89t-88.5 -219z" />
<glyph unicode="7" horiz-adv-x="967" d="M76 1249v137h801v-122l-538 -1264h-159l530 1249h-634z" />
<glyph unicode="8" horiz-adv-x="1137" d="M102 375q0 73 25.5 137t66 107t83 71.5t84.5 42.5q-95 43 -148 119.5t-53 182.5q0 159 114 265.5t298 106.5q182 0 293.5 -104.5t111.5 -268.5q0 -109 -52 -184.5t-147 -112.5q46 -18 88.5 -47t82 -72t63 -105.5t23.5 -135.5q0 -121 -64.5 -213t-169 -138.5t-230.5 -46.5 q-129 0 -235 48t-170 139.5t-64 208.5zM270 381q0 -124 91 -195.5t210 -71.5q122 0 209 75t87 194q0 121 -88.5 201.5t-210.5 80.5t-210 -80.5t-88 -203.5zM322 1037q0 -107 69.5 -174t176.5 -67q108 0 177.5 66.5t69.5 174.5q0 45 -13.5 85t-40.5 74.5t-76 55t-113 20.5 q-122 0 -186 -67t-64 -168z" />
<glyph unicode="9" horiz-adv-x="1113" d="M82 973q6 187 141.5 310t326.5 119q96 -2 179.5 -40.5t144 -105.5t93 -165.5t27.5 -215.5q-7 -249 -178.5 -477t-469.5 -404l-76 126q195 119 320.5 242t185.5 260q-115 -108 -279 -103q-119 3 -216 67t-149.5 167t-49.5 220zM242 973q-4 -128 76 -219t209 -95 q127 -4 217 78t93 216q2 128 -76 217.5t-207 94.5q-130 6 -219 -78.5t-93 -213.5z" />
<glyph unicode=":" horiz-adv-x="245" d="M40 -1v195h185v-195h-185zM40 719v195h185v-195h-185z" />
<glyph unicode=";" horiz-adv-x="259" d="M37 -143q94 32 92 143h-85v195h191v-170q0 -84 -54 -150t-144 -78v60zM52 718v195h184v-195h-184z" />
<glyph unicode="&#x3c;" horiz-adv-x="1258" d="M66 669v96l1077 482v-153l-867 -377l867 -377v-154z" />
<glyph unicode="=" horiz-adv-x="1097" d="M115 403h867v138h-867v-138zM115 749h867v141h-867v-141z" />
<glyph unicode="&#x3e;" horiz-adv-x="1307" d="M115 186v154l866 377l-866 377v153l1076 -482v-96z" />
<glyph unicode="?" horiz-adv-x="745" d="M-14 1148q48 116 151 189t237 77q161 4 267.5 -94t104.5 -258q-1 -64 -21.5 -119t-53 -96t-72 -80t-78.5 -79.5t-71.5 -84t-53.5 -102.5t-22 -128l-1 -55h-146l2 59q2 81 22.5 150.5t51.5 119t68.5 92.5t75 80t68 72.5t50.5 78.5t21 90q2 92 -60.5 152.5t-156.5 56.5 q-81 -4 -148 -54t-98 -134zM217 -1v179h169v-179h-169z" />
<glyph unicode="@" horiz-adv-x="1974" d="M96 407q0 205 73 383t200.5 304.5t307 199t385.5 72.5q184 0 337.5 -58t256 -157.5t159.5 -234.5t57 -288q0 -140 -47 -265t-120.5 -209t-163 -133t-175.5 -50q-100 -1 -157.5 56t-52.5 130q-123 -179 -299 -179q-144 0 -231.5 122t-72.5 337q17 239 140.5 381t282.5 140 q92 -1 162 -49.5t114 -122.5l23 111l134 -1l-126 -614q-8 -26 -4 -57.5t13.5 -59t35.5 -46.5t62 -19q43 0 90.5 25.5t91.5 74t80 112t57.5 146.5t21.5 170q0 269 -187.5 437.5t-485.5 168.5q-175 0 -328 -63.5t-260.5 -173t-169 -261.5t-61.5 -323q0 -145 44 -268.5 t120 -210t177.5 -148t215 -90.5t232.5 -29q351 0 618 247l87 -111q-131 -115 -310.5 -191t-397.5 -76q-138 0 -269.5 32.5t-251.5 102.5t-210.5 170t-144 246t-53.5 320zM701 427q-11 -151 40 -237.5t149 -90.5q74 -2 137.5 44t108.5 120l85 403q-28 70 -82 118.5t-127 53.5 q-122 8 -209.5 -110.5t-101.5 -300.5z" />
<glyph unicode="A" horiz-adv-x="1299" d="M19 0l551 1388h171l539 -1388h-179l-159 431h-581l-164 -431h-178zM413 568h479l-235 638z" />
<glyph unicode="B" horiz-adv-x="1193" d="M174 0v1386h365q221 0 339.5 -96.5t118.5 -252.5q0 -116 -70.5 -197t-182.5 -105q148 -17 246.5 -112.5t98.5 -251.5q0 -164 -117.5 -267.5t-326.5 -103.5h-471zM334 136h301q132 0 212.5 67.5t80.5 175.5q0 111 -93 185.5t-253 74.5h-248v-503zM334 776h164 q151 0 246 69t95 178q0 103 -79.5 165t-228.5 62h-197v-474z" />
<glyph unicode="C" horiz-adv-x="1315" d="M82 692q0 144 44.5 265t119.5 204t174 141.5t206 86t218 29.5h14q194 0 370 -83l-60 -131q-146 78 -314 78q-94 0 -183 -25t-165 -75.5t-133.5 -120.5t-90 -166t-32.5 -207q0 -135 49 -246.5t132.5 -183t190.5 -110.5t226 -39q186 0 344 93l64 -132q-186 -97 -417 -97 q-118 0 -228 28.5t-206.5 88t-168 143.5t-113 202t-41.5 257z" />
<glyph unicode="D" horiz-adv-x="1336" d="M174 0v1386h271q246 0 425.5 -78.5t278 -236t98.5 -379.5q0 -221 -98 -378.5t-270 -235.5t-401 -78h-304zM334 137h149q273 0 435.5 144.5t162.5 412.5q0 138 -46.5 244.5t-130.5 174t-197.5 102t-250.5 34.5h-122v-1112z" />
<glyph unicode="E" horiz-adv-x="1139" d="M174 0v1386h848v-136h-693v-472h569v-136h-569v-506h693v-136h-848z" />
<glyph unicode="F" horiz-adv-x="1077" d="M174 0v1386h810v-136h-650v-478h578v-136h-578v-636h-160z" />
<glyph unicode="G" horiz-adv-x="1462" d="M82 695q0 169 62.5 308t168 228.5t240.5 138t284 48.5q199 0 393 -89l-60 -130q-166 83 -335 83q-167 -1 -301.5 -73.5t-213.5 -208t-79 -309.5q0 -257 161 -420t429 -163q172 0 317 67v407h-334v135h490v-626q-218 -119 -474 -119q-220 0 -390 91t-264 255.5t-94 376.5z " />
<glyph unicode="H" horiz-adv-x="1420" d="M174 0v1386h160v-612h752v612h160v-1386h-160v638h-752v-638h-160z" />
<glyph unicode="I" horiz-adv-x="507" d="M174 0v1384h159v-1384h-159z" />
<glyph unicode="J" horiz-adv-x="529" d="M-22 -193q114 8 165.5 83t51.5 237v1259h161v-1293q0 -208 -98.5 -314t-279.5 -113v141z" />
<glyph unicode="K" horiz-adv-x="1126" d="M174 0v1386h160v-618l501 618h189l-529 -652l612 -734h-207l-566 684v-684h-160z" />
<glyph unicode="L" horiz-adv-x="1031" d="M174 0v1386h160v-1249h614v-137h-774z" />
<glyph unicode="M" horiz-adv-x="1712" d="M174 0v1386h154l527 -765l536 765h148v-1386h-161v1108l-482 -692h-79l-483 692v-1108h-160z" />
<glyph unicode="N" horiz-adv-x="1480" d="M174 0v1386h149l823 -1113v1113h160v-1386h-147l-825 1114v-1114h-160z" />
<glyph unicode="O" d="M82 692q0 164 56 302t152 230t223.5 143t269.5 51q147 0 277 -53t225.5 -146.5t151 -230t55.5 -296.5q0 -165 -57 -303t-154.5 -229t-226 -141.5t-271.5 -50.5q-147 0 -275.5 52t-222.5 145.5t-148.5 229.5t-54.5 297zM249 692q0 -165 64.5 -298t187.5 -211.5t283 -78.5 t283.5 76.5t190.5 210t67 301.5q0 258 -154 424t-387 166q-232 0 -383.5 -166.5t-151.5 -423.5z" />
<glyph unicode="P" horiz-adv-x="1103" d="M174 0v1386h364q236 0 366.5 -118.5t130.5 -312.5q0 -203 -142.5 -323t-389.5 -120h-169v-512h-160zM334 649h185q151 0 253 83t102 221q0 134 -95.5 215t-237.5 81h-207v-600z" />
<glyph unicode="Q" d="M82 692q0 164 56 302t152 230t223.5 143t269.5 51q147 0 277 -53t225.5 -146.5t151 -230t55.5 -296.5q0 -150 -47.5 -278t-129.5 -218t-192 -147.5t-236 -74.5q121 -79 316 -79q26 0 53 1l2 -139q-27 -1 -53 -1q-171 0 -307 56q-157 66 -248 167q-251 44 -409.5 236 t-158.5 477zM249 692q0 -165 64.5 -298t187.5 -211.5t283 -78.5t283.5 76.5t190.5 210t67 301.5q0 258 -154 424t-387 166q-232 0 -383.5 -166.5t-151.5 -423.5z" />
<glyph unicode="R" horiz-adv-x="1164" d="M174 0v1386h370q232 0 361.5 -111t129.5 -297q0 -146 -81 -248t-229 -145l405 -585h-184l-384 558q-17 -1 -53 -1h-175v-557h-160zM334 694h191q147 0 247.5 75.5t100.5 205.5q0 127 -93.5 200.5t-231.5 73.5h-214v-555z" />
<glyph unicode="S" horiz-adv-x="1090" d="M63 160l83 113q191 -166 394 -170h12q77 0 141 25q69 27 112 82.5t44 130.5v6q1 39 -11 73q-12 37 -38.5 66.5t-56 54t-72.5 47.5t-78.5 39.5t-85.5 38.5q-8 3 -12.5 5t-11.5 5t-13 6q-62 28 -104.5 50t-91.5 57t-78 71.5t-48 87.5q-17 46 -17 100v11q4 157 129 259 q123 100 303 100h7q186 -3 357 -113l-66 -120q-140 95 -286 96h-8q-124 0 -200 -63q-79 -65 -79 -156q0 -32 9 -59t30.5 -50.5t43 -41.5t59 -38t64 -32.5t72.5 -32.5q169 -74 230 -111q172 -103 205 -251q9 -38 9 -81v-9q-1 -120 -63 -210.5t-167 -136.5q-99 -43 -221 -43 h-16q-137 3 -261 57.5t-219 136.5z" />
<glyph unicode="T" horiz-adv-x="1220" d="M51 1249v137h1118v-137h-479v-1249h-160v1249h-479z" />
<glyph unicode="U" horiz-adv-x="1430" d="M149 565v821h160v-817q0 -116 35.5 -206t94.5 -142.5t130 -78.5t149 -26q80 0 150 26.5t128 79t91.5 141.5t33.5 204v819h160v-821q0 -124 -32.5 -224t-86 -166.5t-127 -111.5t-152.5 -64.5t-165 -19.5q-88 0 -168.5 20.5t-154 66t-128 112t-86.5 166.5t-32 221z" />
<glyph unicode="V" horiz-adv-x="1320" d="M25 1386h175l455 -1153l465 1153h176l-580 -1387h-124z" />
<glyph unicode="W" horiz-adv-x="2021" d="M25 1386h170l357 -1102l404 1102h110l389 -1102l375 1102h166l-481 -1386h-114l-391 1102l-406 -1102h-110z" />
<glyph unicode="X" horiz-adv-x="1221" d="M33 0l479 719l-435 667h189l341 -524l349 524h189l-437 -658l479 -728h-190l-384 586l-389 -586h-191z" />
<glyph unicode="Y" horiz-adv-x="1140" d="M-22 1386h177l411 -657l419 657h176l-511 -801v-585h-161v577z" />
<glyph unicode="Z" horiz-adv-x="1169" d="M86 0l2 119l764 1130h-727v137h914v-130l-761 -1119h805l-1 -137h-996z" />
<glyph unicode="[" horiz-adv-x="563" d="M174 -224v1629h292v-137h-132v-1355h132v-137h-292z" />
<glyph unicode="\" horiz-adv-x="975" d="M34 1407h153l755 -1428h-152z" />
<glyph unicode="]" horiz-adv-x="563" d="M96 -87h133v1355h-133v137h293v-1629h-293v137z" />
<glyph unicode="_" horiz-adv-x="865" d="M3 0h860v-101h-860v101z" />
<glyph unicode="`" horiz-adv-x="798" d="M431 1835h217l146 -252h-108z" />
<glyph unicode="a" horiz-adv-x="897" d="M65 242q0 114 80 177.5t239 106.5q18 5 54.5 14t52.5 13.5t42.5 13.5t41 16.5t29.5 19.5t25 26q-1 79 -59 121t-141 43h-10q-121 0 -231 -93l-62 100q154 113 323 113q67 0 126 -17.5t107 -53t75.5 -94.5t27.5 -136v-612h-150l-3 131q-132 -147 -294 -147 q-114 0 -193.5 70t-79.5 188zM225 247q0 -63 46 -103t117 -40q64 1 127.5 38.5t113.5 99.5v274q-20 -17 -51 -32.5t-53.5 -23.5t-70.5 -24q-45 -15 -68.5 -24t-59.5 -27t-54 -35t-32.5 -44t-14.5 -59z" />
<glyph unicode="b" horiz-adv-x="1041" d="M129 91v1334h157v-615q125 105 281 105q81 0 154 -29.5t131 -85.5t92 -146.5t34 -203.5q0 -119 -38 -211t-105 -147.5t-151 -83.5t-181 -28q-198 0 -374 111zM286 152q99 -54 207 -54q66 0 124 22.5t104 65t72 111t26 154.5q-1 156 -82 246.5t-201 90.5q-138 0 -250 -117 v-519z" />
<glyph unicode="c" horiz-adv-x="868" d="M53 449q0 205 134.5 335t337.5 130q136 0 257 -64l-59 -123q-85 54 -185 54q-139 0 -233.5 -93.5t-94.5 -238.5q0 -144 94.5 -237t234.5 -93q123 0 219 76l72 -116q-136 -91 -304 -91q-129 0 -235.5 54t-172 160.5t-65.5 246.5z" />
<glyph unicode="d" horiz-adv-x="1040" d="M63 451q0 110 35 199.5t94.5 146.5t135 88t158.5 31q152 0 268 -99v608h157l-1 -1341q-181 -102 -369 -102q-136 0 -242.5 51.5t-171 159t-64.5 258.5zM222 451q0 -157 92 -253q94 -97 241 -97q104 0 199 50v529q-107 109 -239 109q-125 1 -209 -91t-84 -247z" />
<glyph unicode="e" horiz-adv-x="975" d="M54 474q4 136 69 238q65 104 165 154q95 48 206 47h13q68 -2 130 -21t117.5 -60t94.5 -99.5t59 -144.5q14 -61 13 -131q0 -29 -2 -58l-708 2q13 -135 96.5 -210.5t213.5 -78.5h9q160 0 278 107l76 -108q-154 -127 -355 -127h-18q-209 6 -337 146q-121 132 -120 323v21z M213 518l556 -1v6q0 109 -69 185q-71 78 -192 81h-13q-111 -1 -185 -67q-80 -70 -97 -204z" />
<glyph unicode="f" horiz-adv-x="631" d="M65 767v133h129v148q0 168 92 260.5t230 92.5q92 0 179 -42l-52 -124q-56 29 -111 29q-76 0 -127 -56t-51 -161v-147h204l-2 -133h-202v-767h-160v767h-129z" />
<glyph unicode="g" horiz-adv-x="989" d="M38 -296q0 110 77 181.5t204 89.5q-66 21 -104 60t-38 89q0 57 45.5 99.5t116.5 53.5q-102 19 -176 96t-74 198q0 147 114.5 240t297.5 93h406v-121l-185 -1q58 -30 96.5 -86.5t38.5 -137.5q0 -70 -32 -127.5t-86 -93t-117 -57t-133 -27.5q-149 -19 -149 -102v-6 q2 -30 19.5 -51t47.5 -31.5t59.5 -15t67.5 -6.5q444 -22 444 -275q0 -102 -70.5 -181t-189.5 -120.5t-266 -41.5q-191 0 -302.5 73t-111.5 208zM194 -283q0 -79 68 -122t198 -43q158 0 264 58t106 147q0 81 -90 123q-81 39 -202 39q-14 0 -29 -1q-151 -4 -233 -59t-82 -142z M246 570q0 -87 60.5 -141t159.5 -54q97 0 165 53.5t69 141.5v5q0 80 -59 139q-61 60 -166 60q-101 0 -165 -57t-64 -147z" />
<glyph unicode="h" horiz-adv-x="1036" d="M129 0v1425h157v-696q58 85 141 135t182 50q136 0 225.5 -93.5t89.5 -253.5v-567h-156v548q0 117 -61 174t-143 57t-155.5 -52.5t-122.5 -133.5v-593h-157z" />
<glyph unicode="i" horiz-adv-x="397" d="M119 1051v147h159v-147h-159zM120 0v900h157v-900h-157z" />
<glyph unicode="j" horiz-adv-x="438" d="M-38 -261q107 7 153 75.5t46 210.5v875h157v-904q0 -190 -90 -289.5t-266 -107.5v140zM161 1051v147h157v-147h-157z" />
<glyph unicode="k" horiz-adv-x="917" d="M129 0v1405h157v-864l370 359h210l-417 -394l460 -506h-205l-418 470v-470h-157z" />
<glyph unicode="l" horiz-adv-x="413" d="M129 0v1425l155 1v-1426h-155z" />
<glyph unicode="m" horiz-adv-x="1643" d="M124 0v900l156 1v-174q58 86 140 136.5t180 50.5q97 0 177 -51t111 -154q57 95 143 150t191 55q136 0 222.5 -93t86.5 -265v-556h-157v531q0 128 -52.5 187t-137.5 59q-159 0 -278 -184v-593h-157v531q0 128 -53 187t-138 59q-158 0 -278 -184v-593h-156z" />
<glyph unicode="n" horiz-adv-x="1032" d="M124 0v900h158v-174q61 86 143 137t179 51q134 0 225 -94.5t91 -256.5v-563h-158v549q0 115 -57.5 172t-140.5 57q-81 0 -155.5 -53t-126.5 -135v-590h-158z" />
<glyph unicode="o" horiz-adv-x="1045" d="M53 451q0 141 65 248.5t171.5 163t235.5 55.5q96 0 180.5 -32.5t148.5 -91.5t101 -148.5t37 -197.5q0 -212 -135.5 -339t-334.5 -127q-203 0 -336 131.5t-133 337.5zM214 450q0 -144 85.5 -240.5t221.5 -96.5q137 0 223.5 97t86.5 240q0 144 -86 240.5t-223 96.5 t-222.5 -96.5t-85.5 -240.5z" />
<glyph unicode="p" horiz-adv-x="1030" d="M124 -491v1312q184 99 372 99q100 0 184 -28.5t148.5 -83.5t101 -145t36.5 -205q0 -218 -120.5 -345t-300.5 -127q-141 0 -264 78v-555h-157zM281 198q108 -84 232 -84q133 0 213 98q82 100 82 248q0 156 -91 248q-92 94 -233 94q-101 0 -203 -55v-549z" />
<glyph unicode="q" horiz-adv-x="1040" d="M63 449q0 151 64.5 258.5t171 159t242.5 51.5q187 0 370 -102v-1341h-157v608q-116 -99 -268 -99q-83 0 -158.5 31t-135 88t-94.5 146.5t-35 199.5zM306 202q84 -91 209 -91q132 0 239 109v529q-95 50 -199 50q-147 0 -241 -97q-92 -96 -92 -253q0 -154 84 -247z" />
<glyph unicode="r" horiz-adv-x="684" d="M124 0v900h157l-1 -195q45 93 120.5 151t166.5 58q46 0 97 -17l-3 -151q-48 18 -99 18q-85 0 -158 -60t-123 -170v-534h-157z" />
<glyph unicode="s" horiz-adv-x="795" d="M63 92l59 116q126 -92 264 -93h5q77 1 131 31q56 32 55 93q0 27 -13.5 50t-31.5 38t-51 31t-55.5 24.5t-63.5 21.5q-35 11 -51.5 17t-50.5 20t-52.5 26t-44 32.5t-38.5 42.5t-22.5 52.5t-9.5 65.5q1 118 95 186q91 66 222 66h8q139 -1 269 -79l-59 -113q-98 63 -199 64 h-9q-78 0 -122 -34q-48 -36 -48 -88q0 -19 6 -35t23 -29.5t29.5 -22t44.5 -20.5t48 -17t58 -18q46 -14 76 -25t74 -35t69 -50q26 -26 44 -70q18 -41 18 -92v-5q-2 -125 -98 -192q-93 -65 -234 -65h-8q-177 3 -337 106z" />
<glyph unicode="t" horiz-adv-x="736" d="M45 773v127h156v294h157v-294h312l-1 -127h-311v-457q0 -90 46.5 -143.5t120.5 -55.5h8q73 0 150 54l54 -120q-111 -67 -229 -67q-134 0 -220.5 85.5t-86.5 241.5v462h-156z" />
<glyph unicode="u" horiz-adv-x="1018" d="M107 323v577h157v-570q0 -58 17 -100.5t46 -65.5t60.5 -33.5t65.5 -10.5q75 0 148.5 46.5t135.5 130.5v603h157v-900h-153l-4 168q-66 -83 -156 -132.5t-185 -49.5q-56 0 -105.5 18.5t-91.5 56t-67 105t-25 157.5z" />
<glyph unicode="v" horiz-adv-x="922" d="M9 900h168l275 -690l298 690h162l-401 -900h-121z" />
<glyph unicode="w" horiz-adv-x="1471" d="M9 900h163l242 -678l266 678h116l261 -680l247 680h158l-342 -900h-113l-270 694l-275 -694h-111z" />
<glyph unicode="x" horiz-adv-x="910" d="M17 0l347 469l-316 431h175l228 -314l233 314h182l-320 -429l347 -471h-174l-260 354l-264 -354h-178z" />
<glyph unicode="y" horiz-adv-x="1005" d="M21 900h168l301 -707l326 707h172l-528 -1119q-55 -117 -146 -175q-81 -52 -181 -52q-14 0 -28 1l1 135h11q141 0 211 149l82 175z" />
<glyph unicode="z" horiz-adv-x="909" d="M77 0v55l533 719h-508v126h731v-57l-537 -718h525v-125h-744z" />
<glyph unicode="{" horiz-adv-x="674" d="M48 385v163q128 21 172.5 80.5t45.5 200.5v185q1 204 78 292.5t239 88.5h58v-151q-124 1 -168 -48.5t-44 -179.5v-179q-2 -175 -45 -254.5t-157 -115.5q114 -36 157 -116t45 -254v-179q0 -131 44 -180.5t168 -48.5v-150h-58q-162 0 -239 88.5t-78 291.5v186 q-1 141 -45.5 200t-172.5 80z" />
<glyph unicode="}" horiz-adv-x="724" d="M14 -311q124 -1 168.5 48.5t44.5 180.5v179q2 174 45 254t156 116q-114 36 -156.5 115.5t-44.5 254.5v179q0 130 -44.5 179.5t-168.5 48.5v151h59q162 0 239 -88.5t77 -292.5v-185q1 -141 45.5 -200t172.5 -81v-163q-127 -21 -172 -80t-46 -200v-186q0 -203 -77 -291.5 t-239 -88.5h-59v150z" />
<glyph unicode="&#xa1;" horiz-adv-x="460" d="M96 -427l36 1060h123l25 -1060h-184zM111 780v180h170v-180h-170z" />
<glyph unicode="&#xa2;" horiz-adv-x="868" d="M53 703q0 184 109.5 309t282.5 150l6 224h123l-5 -220q110 -8 213 -62l-59 -123q-73 47 -157 53l-15 -660q116 3 207 75l72 -115q-126 -85 -282 -92l-6 -242h-127l6 252q-161 32 -264.5 152t-103.5 299zM210 703q0 -112 59 -195t156 -116l17 630q-104 -30 -168 -115.5 t-64 -203.5z" />
<glyph unicode="&#xa3;" horiz-adv-x="977" d="M30 -25l170 652h-137v138h175q91 319 232 486t312 167q57 0 126 -26l-46 -132q-36 17 -75 17q-115 0 -212.5 -132.5t-171.5 -379.5h226v-138h-268l-120 -476q85 17 156 17q84 0 191 -20.5t151 -20.5q98 0 180 52l52 -131q-98 -61 -224 -61q-51 0 -173 20t-217 20 q-158 0 -327 -52z" />
<glyph unicode="&#xa4;" horiz-adv-x="600" />
<glyph unicode="&#xa5;" horiz-adv-x="1128" d="M-19 1386h177l411 -657l419 657h176l-435 -681h222v-128h-298v-82h298v-128h-298v-367h-161v367h-299v128h299v82h-299v128h218z" />
<glyph unicode="&#xa8;" horiz-adv-x="798" d="M420 1592v184h183v-184h-183zM762 1592v184h183v-184h-183z" />
<glyph unicode="&#xab;" horiz-adv-x="949" d="M29 498l313 491h170l-314 -492l315 -497h-168zM418 498l313 491h170l-314 -492l314 -497h-168z" />
<glyph unicode="&#xad;" horiz-adv-x="709" d="M43 503v131h623v-131h-623z" />
<glyph unicode="&#xaf;" horiz-adv-x="1195" d="M92 1560v95h847v-95h-847z" />
<glyph unicode="&#xb4;" horiz-adv-x="798" d="M575 1573l146 252h217l-255 -252h-108z" />
<glyph unicode="&#xb7;" horiz-adv-x="674" d="M43 571v194h185v-194h-185z" />
<glyph unicode="&#xb8;" horiz-adv-x="688" d="M672 -293q184 10 184 85q0 32 -33.5 55.5t-106.5 26.5l92 148h104l-41 -87q66 -14 108 -51t42 -98q0 -77 -81 -125t-268 -47v93z" />
<glyph unicode="&#xbb;" horiz-adv-x="949" d="M40 0l315 497l-314 492h170l313 -491l-316 -498h-168zM429 0l315 497l-314 492h169l313 -491l-315 -498h-168z" />
<glyph unicode="&#xbc;" horiz-adv-x="1404" d="M-1 1268l130 116h159v-721h-160v552l-51 -49zM153 -21l756 1428h151l-756 -1428h-151zM800 150v136l336 435h124v-434h88v-137h-88v-150h-161v150h-299zM933 287h166v230z" />
<glyph unicode="&#xbd;" horiz-adv-x="1400" d="M-1 1268l130 116h159v-721h-160v552l-51 -49zM153 -21l756 1428h151l-755 -1428h-152zM861 0l1 127l245 245q39 40 60.5 72.5t21.5 69.5q0 39 -22 61.5t-58 22.5q-32 0 -56 -23.5t-34 -59.5l-142 61q31 84 94.5 121t140.5 37q101 0 167.5 -59t66.5 -156q0 -67 -31 -121 t-87 -109l-146 -152h272v-137h-493z" />
<glyph unicode="&#xbe;" horiz-adv-x="1593" d="M24 744l78 106q62 -62 140 -62q48 1 76 25t28 65q0 42 -31 69.5t-79 27.5h-73l1 122h67q45 0 74.5 24t29.5 64q0 36 -25 56.5t-68 20.5q-58 0 -105 -44l-74 99q87 82 200 82q96 0 163 -55t67 -141q0 -59 -31.5 -102.5t-76.5 -58.5q50 -17 84 -60.5t34 -113.5 q0 -104 -72 -160.5t-177 -56.5q-136 0 -230 93zM342 -21l756 1428h151l-756 -1428h-151zM989 150v136l335 435h124v-434h89v-137h-89v-150h-160v150h-299zM1122 287h166v230z" />
<glyph unicode="&#xbf;" horiz-adv-x="743" d="M-3 14q1 64 21.5 119t53 96t72 80t78.5 79.5t72 84t54 102.5t22 128l1 55h145l-1 -59q-2 -81 -22.5 -150.5t-51.5 -119t-68.5 -92.5t-75 -80t-68.5 -72.5t-51 -78.5t-21 -90q-2 -92 60.5 -152.5t156.5 -56.5q81 4 148.5 54.5t97.5 133.5l137 -67q-48 -116 -150.5 -189 t-237.5 -77q-160 -4 -266.5 94t-105.5 258zM357 899v178h170v-178h-170z" />
<glyph unicode="&#xc0;" horiz-adv-x="1299" d="M19 0l551 1388h171l539 -1388h-179l-159 431h-581l-164 -431h-178zM413 568h479l-235 638zM461 1836h217l146 -252h-108z" />
<glyph unicode="&#xc1;" horiz-adv-x="1299" d="M19 0l551 1388h171l539 -1388h-179l-159 431h-581l-164 -431h-178zM413 568h479l-235 638zM498 1555l147 252h216l-255 -252h-108z" />
<glyph unicode="&#xc2;" horiz-adv-x="1299" d="M19 0l551 1388h171l539 -1388h-179l-159 431h-581l-164 -431h-178zM383 1540l166 274h218l166 -274h-123l-152 185l-152 -185h-123zM413 568h479l-235 638z" />
<glyph unicode="&#xc3;" horiz-adv-x="1299" d="M19 0l551 1388h171l539 -1388h-179l-159 431h-581l-164 -431h-178zM311 1633q13 86 66.5 131t126.5 45q41 0 84 -15t74 -33.5t70 -33.5t72 -15q81 0 106 83l95 -17q-8 -94 -63.5 -144.5t-133.5 -50.5q-50 0 -104 24t-103.5 47.5t-91.5 23.5q-80 0 -102 -71zM413 568h479 l-235 638z" />
<glyph unicode="&#xc4;" horiz-adv-x="1299" d="M19 0l551 1388h171l539 -1388h-179l-159 431h-581l-164 -431h-178zM394 1594v183h183v-183h-183zM413 568h479l-235 638zM736 1594v183h183v-183h-183z" />
<glyph unicode="&#xc5;" horiz-adv-x="1299" d="M19 0l551 1388h171l539 -1388h-179l-159 431h-581l-164 -431h-178zM413 568h479l-235 638zM486 1754q0 72 50 122t122 50q73 0 123.5 -49.5t50.5 -122.5t-51.5 -124t-123.5 -51t-121.5 52t-49.5 123zM560 1753q0 -41 29 -70t69 -29t70 29t30 70t-30 69.5t-70 28.5 t-69 -28.5t-29 -69.5z" />
<glyph unicode="&#xc6;" horiz-adv-x="1784" d="M19 0l791 1386h857v-136h-692v-472h568v-136h-568v-506h692v-136h-848v580h-292l-326 -580h-182zM603 716h216v384z" />
<glyph unicode="&#xc7;" horiz-adv-x="1315" d="M82 692q0 144 44.5 265t119.5 204t174 141.5t206 86t218 29.5q201 3 384 -83l-60 -131q-148 78 -314 78q-94 0 -183 -25t-165 -75.5t-133.5 -120.5t-90 -166t-32.5 -207q0 -135 49 -246.5t132.5 -183t190.5 -110.5t226 -39q186 0 344 93l64 -132q-164 -85 -368 -96 l-18 -39q66 -14 107.5 -51t41.5 -98q0 -77 -80.5 -125t-267.5 -47v93q184 10 184 85q0 32 -34 55.5t-106 26.5l62 101q-140 10 -263.5 60.5t-221 138t-154 221.5t-56.5 297z" />
<glyph unicode="&#xc8;" horiz-adv-x="1139" d="M174 0v1386h848v-136h-693v-472h569v-136h-569v-506h693v-136h-848zM426 1846h216l146 -252h-107z" />
<glyph unicode="&#xc9;" horiz-adv-x="1139" d="M174 0v1386h848v-136h-693v-472h569v-136h-569v-506h693v-136h-848zM463 1565l146 252h217l-255 -252h-108z" />
<glyph unicode="&#xca;" horiz-adv-x="1139" d="M174 0v1386h848v-136h-693v-472h569v-136h-569v-506h693v-136h-848zM347 1550l167 274h217l167 -274h-124l-152 185l-152 -185h-123z" />
<glyph unicode="&#xcb;" horiz-adv-x="1139" d="M174 0v1386h848v-136h-693v-472h569v-136h-569v-506h693v-136h-848zM358 1604v183h184v-183h-184zM700 1604v183h184v-183h-184z" />
<glyph unicode="&#xcc;" horiz-adv-x="507" d="M56 1835h216l147 -252h-108zM174 0v1384h159v-1384h-159z" />
<glyph unicode="&#xcd;" horiz-adv-x="507" d="M93 1554l146 252h217l-255 -252h-108zM174 0v1384h159v-1384h-159z" />
<glyph unicode="&#xce;" horiz-adv-x="507" d="M-23 1539l167 273h217l167 -273h-124l-151 184l-152 -184h-124zM174 0v1384h159v-1384h-159z" />
<glyph unicode="&#xcf;" horiz-adv-x="507" d="M-12 1592v184h184v-184h-184zM174 0v1384h159v-1384h-159zM330 1592v184h184v-184h-184z" />
<glyph unicode="&#xd0;" horiz-adv-x="1336" d="M-49 776v131h223v479h271q246 0 425.5 -78.5t278 -236t98.5 -379.5q0 -221 -98 -378.5t-270 -235.5t-401 -78h-304v776h-223zM334 137h149q273 0 435.5 144.5t162.5 412.5q0 138 -46.5 244.5t-130.5 174t-197.5 102t-250.5 34.5h-122v-342h240v-131h-240v-639z" />
<glyph unicode="&#xd1;" horiz-adv-x="1480" d="M174 0v1386h149l823 -1113v1113h160v-1386h-147l-825 1113v-1113h-160zM409 1633q13 86 66.5 131t125.5 45q51 0 105 -24t104 -48.5t91 -24.5q81 0 106 83l95 -17q-8 -94 -63 -144.5t-133 -50.5q-41 0 -84 15t-73.5 33t-69.5 32.5t-72 14.5q-80 0 -102 -71z" />
<glyph unicode="&#xd2;" d="M82 692q0 164 56 302t152 230t223.5 143t269.5 51q147 0 277 -53t225.5 -146.5t151 -230t55.5 -296.5q0 -165 -57 -303t-154.5 -229t-226 -141.5t-271.5 -50.5q-147 0 -275.5 52t-222.5 145.5t-148.5 229.5t-54.5 297zM249 692q0 -165 64.5 -298t187.5 -211.5t283 -78.5 t283.5 76.5t190.5 210t67 301.5q0 258 -154 424t-387 166q-232 0 -383.5 -166.5t-151.5 -423.5zM587 1890h217l146 -252h-108z" />
<glyph unicode="&#xd3;" d="M82 692q0 164 56 302t152 230t223.5 143t269.5 51q147 0 277 -53t225.5 -146.5t151 -230t55.5 -296.5q0 -165 -57 -303t-154.5 -229t-226 -141.5t-271.5 -50.5q-147 0 -275.5 52t-222.5 145.5t-148.5 229.5t-54.5 297zM249 692q0 -165 64.5 -298t187.5 -211.5t283 -78.5 t283.5 76.5t190.5 210t67 301.5q0 258 -154 424t-387 166q-232 0 -383.5 -166.5t-151.5 -423.5zM624 1609l147 252h216l-255 -252h-108z" />
<glyph unicode="&#xd4;" d="M82 692q0 164 56 302t152 230t223.5 143t269.5 51q147 0 277 -53t225.5 -146.5t151 -230t55.5 -296.5q0 -165 -57 -303t-154.5 -229t-226 -141.5t-271.5 -50.5q-147 0 -275.5 52t-222.5 145.5t-148.5 229.5t-54.5 297zM249 692q0 -165 64.5 -298t187.5 -211.5t283 -78.5 t283.5 76.5t190.5 210t67 301.5q0 258 -154 424t-387 166q-232 0 -383.5 -166.5t-151.5 -423.5zM509 1594l166 274h218l166 -274h-123l-152 185l-152 -185h-123z" />
<glyph unicode="&#xd5;" d="M82 692q0 164 56 302t152 230t223.5 143t269.5 51q147 0 277 -53t225.5 -146.5t151 -230t55.5 -296.5q0 -165 -57 -303t-154.5 -229t-226 -141.5t-271.5 -50.5q-147 0 -275.5 52t-222.5 145.5t-148.5 229.5t-54.5 297zM249 692q0 -165 64.5 -298t187.5 -211.5t283 -78.5 t283.5 76.5t190.5 210t67 301.5q0 258 -154 424t-387 166q-232 0 -383.5 -166.5t-151.5 -423.5zM437 1687q13 86 66.5 131t126.5 45q41 0 84 -15t74 -33.5t70 -33.5t72 -15q81 0 106 83l95 -17q-8 -94 -63 -144.5t-133 -50.5q-51 0 -105 24t-103.5 47.5t-91.5 23.5 q-80 0 -102 -71z" />
<glyph unicode="&#xd6;" d="M82 692q0 164 56 302t152 230t223.5 143t269.5 51q147 0 277 -53t225.5 -146.5t151 -230t55.5 -296.5q0 -165 -57 -303t-154.5 -229t-226 -141.5t-271.5 -50.5q-147 0 -275.5 52t-222.5 145.5t-148.5 229.5t-54.5 297zM249 692q0 -165 64.5 -298t187.5 -211.5t283 -78.5 t283.5 76.5t190.5 210t67 301.5q0 258 -154 424t-387 166q-232 0 -383.5 -166.5t-151.5 -423.5zM520 1648v183h183v-183h-183zM862 1648v183h183v-183h-183z" />
<glyph unicode="&#xd8;" d="M82 692q0 164 56 302t152 230t223.5 143t269.5 51q151 0 281 -53l34 64h157l-69 -129q143 -95 224.5 -252.5t81.5 -355.5q0 -165 -57 -303t-154.5 -229t-226 -141.5t-271.5 -50.5q-149 0 -275 51l-36 -69h-156l70 133q-142 95 -223 252t-81 357zM249 692q0 -149 54 -273 t153 -204l542 1024q-104 43 -214 43q-232 0 -383.5 -166.5t-151.5 -423.5zM575 144q99 -40 209 -40q160 0 283.5 76.5t190.5 210t67 301.5q0 150 -55 273t-154 202z" />
<glyph unicode="&#xd9;" horiz-adv-x="1430" d="M149 565v821h160v-817q0 -116 35.5 -206t94.5 -142.5t130 -78.5t149 -26q80 0 150 26.5t128 79t91.5 141.5t33.5 204v819h160v-821q0 -124 -32.5 -224t-86 -166.5t-127 -111.5t-152.5 -64.5t-165 -19.5q-88 0 -168.5 20.5t-154 66t-128 112t-86.5 166.5t-32 221z M518 1846h216l147 -252h-108z" />
<glyph unicode="&#xda;" horiz-adv-x="1430" d="M149 565v821h160v-817q0 -116 35.5 -206t94.5 -142.5t130 -78.5t149 -26q80 0 150 26.5t128 79t91.5 141.5t33.5 204v819h160v-821q0 -124 -32.5 -224t-86 -166.5t-127 -111.5t-152.5 -64.5t-165 -19.5q-88 0 -168.5 20.5t-154 66t-128 112t-86.5 166.5t-32 221z M555 1565l147 252h216l-255 -252h-108z" />
<glyph unicode="&#xdb;" horiz-adv-x="1430" d="M149 565v821h160v-817q0 -116 35.5 -206t94.5 -142.5t130 -78.5t149 -26q80 0 150 26.5t128 79t91.5 141.5t33.5 204v819h160v-821q0 -124 -32.5 -224t-86 -166.5t-127 -111.5t-152.5 -64.5t-165 -19.5q-88 0 -168.5 20.5t-154 66t-128 112t-86.5 166.5t-32 221z M439 1550l167 274h217l167 -274h-124l-151 185l-152 -185h-124z" />
<glyph unicode="&#xdc;" horiz-adv-x="1430" d="M149 565v821h160v-817q0 -116 35.5 -206t94.5 -142.5t130 -78.5t149 -26q80 0 150 26.5t128 79t91.5 141.5t33.5 204v819h160v-821q0 -124 -32.5 -224t-86 -166.5t-127 -111.5t-152.5 -64.5t-165 -19.5q-88 0 -168.5 20.5t-154 66t-128 112t-86.5 166.5t-32 221z M451 1604v183h183v-183h-183zM793 1604v183h183v-183h-183z" />
<glyph unicode="&#xdd;" horiz-adv-x="1140" d="M-22 1386h177l411 -657l419 657h176l-511 -801v-585h-161v577zM417 1565l147 252h216l-255 -252h-108z" />
<glyph unicode="&#xde;" horiz-adv-x="1103" d="M174 0v1386h159v-251h148q271 0 412.5 -116t141.5 -322q0 -97 -33 -175.5t-100.5 -138t-177.5 -92.5t-256 -34l-135 -1v-256h-159zM333 394h138q110 0 190.5 24.5t125.5 68.5t66 96.5t21 116.5q0 142 -101 220.5t-304 78.5h-136v-605z" />
<glyph unicode="&#xdf;" horiz-adv-x="1206" d="M159 0v972q0 190 117 313t318 123q178 0 294 -96t116 -245q0 -99 -49 -167.5t-122 -100.5q57 -17 106.5 -48.5t91.5 -78.5t66.5 -114.5t24.5 -147.5q0 -183 -118.5 -302t-295.5 -123q-88 -2 -180 29l33 133q62 -19 125 -19q127 -1 198 81.5t71 205.5q0 125 -75 207 t-209 114v113q75 22 120 79.5t45 131.5q0 94 -71.5 154t-169.5 60q-113 0 -188 -81.5t-75 -207.5v-985h-173z" />
<glyph unicode="&#xe0;" horiz-adv-x="897" d="M65 242q0 114 80 177.5t239 106.5q18 5 54.5 14t52.5 13.5t42.5 13.5t41 16.5t29.5 19.5t25 26q-1 79 -59 121t-141 43q-127 4 -241 -93l-62 100q154 113 323 113q67 0 126 -17.5t107 -53t75.5 -94.5t27.5 -136v-612h-150l-3 131q-132 -147 -294 -147q-114 0 -193.5 70 t-79.5 188zM225 247q0 -63 46 -103t117 -40q64 1 127.5 38.5t113.5 99.5v274q-20 -17 -51 -32.5t-53.5 -23.5t-70.5 -24q-45 -15 -68.5 -24t-59.5 -27t-54 -35t-32.5 -44t-14.5 -59zM291 1374h216l146 -253h-107z" />
<glyph unicode="&#xe1;" horiz-adv-x="897" d="M65 242q0 114 80 177.5t239 106.5q18 5 54.5 14t52.5 13.5t42.5 13.5t41 16.5t29.5 19.5t25 26q-1 79 -59 121t-141 43q-127 4 -241 -93l-62 100q154 113 323 113q67 0 126 -17.5t107 -53t75.5 -94.5t27.5 -136v-612h-150l-3 131q-132 -147 -294 -147q-114 0 -193.5 70 t-79.5 188zM225 247q0 -63 46 -103t117 -40q64 1 127.5 38.5t113.5 99.5v274q-20 -17 -51 -32.5t-53.5 -23.5t-70.5 -24q-45 -15 -68.5 -24t-59.5 -27t-54 -35t-32.5 -44t-14.5 -59zM328 1092l146 253h217l-255 -253h-108z" />
<glyph unicode="&#xe2;" horiz-adv-x="897" d="M65 242q0 114 80 177.5t239 106.5q18 5 54.5 14t52.5 13.5t42.5 13.5t41 16.5t29.5 19.5t25 26q-1 79 -59 121t-141 43q-127 4 -241 -93l-62 100q154 113 323 113q67 0 126 -17.5t107 -53t75.5 -94.5t27.5 -136v-612h-150l-3 131q-132 -147 -294 -147q-114 0 -193.5 70 t-79.5 188zM212 1077l167 274h217l167 -274h-124l-152 185l-152 -185h-123zM225 247q0 -63 46 -103t117 -40q64 1 127.5 38.5t113.5 99.5v274q-20 -17 -51 -32.5t-53.5 -23.5t-70.5 -24q-45 -15 -68.5 -24t-59.5 -27t-54 -35t-32.5 -44t-14.5 -59z" />
<glyph unicode="&#xe3;" horiz-adv-x="897" d="M65 242q0 114 80 177.5t239 106.5q18 5 54.5 14t52.5 13.5t42.5 13.5t41 16.5t29.5 19.5t25 26q-1 79 -59 121t-141 43q-127 4 -241 -93l-62 100q154 113 323 113q67 0 126 -17.5t107 -53t75.5 -94.5t27.5 -136v-612h-150l-3 131q-132 -147 -294 -147q-114 0 -193.5 70 t-79.5 188zM140 1170q14 86 67.5 131.5t125.5 45.5q51 0 105 -24.5t104 -49t91 -24.5q81 0 106 83l95 -17q-8 -94 -63 -144.5t-133 -50.5q-51 0 -105 24t-103.5 47.5t-91.5 23.5q-81 0 -101 -71zM225 247q0 -63 46 -103t117 -40q64 1 127.5 38.5t113.5 99.5v274 q-20 -17 -51 -32.5t-53.5 -23.5t-70.5 -24q-45 -15 -68.5 -24t-59.5 -27t-54 -35t-32.5 -44t-14.5 -59z" />
<glyph unicode="&#xe4;" horiz-adv-x="897" d="M65 242q0 114 80 177.5t239 106.5q18 5 54.5 14t52.5 13.5t42.5 13.5t41 16.5t29.5 19.5t25 26q-1 79 -59 121t-141 43q-127 4 -241 -93l-62 100q154 113 323 113q67 0 126 -17.5t107 -53t75.5 -94.5t27.5 -136v-612h-150l-3 131q-132 -147 -294 -147q-114 0 -193.5 70 t-79.5 188zM223 1131v184h184v-184h-184zM225 247q0 -63 46 -103t117 -40q64 1 127.5 38.5t113.5 99.5v274q-20 -17 -51 -32.5t-53.5 -23.5t-70.5 -24q-45 -15 -68.5 -24t-59.5 -27t-54 -35t-32.5 -44t-14.5 -59zM565 1131v184h184v-184h-184z" />
<glyph unicode="&#xe5;" horiz-adv-x="897" d="M65 242q0 114 80 177.5t239 106.5q18 5 54.5 14t52.5 13.5t42.5 13.5t41 16.5t29.5 19.5t25 26q-1 79 -59 121t-141 43q-127 4 -242 -93l-61 100q154 113 323 113q67 0 126 -17.5t107 -53t75.5 -94.5t27.5 -136v-612h-150l-3 131q-132 -147 -294 -147q-114 0 -193.5 70 t-79.5 188zM225 247q0 -63 46 -103t117 -40q64 1 127 38.5t114 99.5v274q-20 -17 -51 -32.5t-53.5 -23.5t-70.5 -24q-45 -15 -68.5 -24t-59.5 -27t-54 -35t-32.5 -44t-14.5 -59zM315 1291q0 72 50 122.5t122 50.5q74 0 124.5 -50t50.5 -123t-51.5 -124t-123.5 -51 q-73 0 -122.5 52t-49.5 123zM389 1290q0 -40 29 -69.5t69 -29.5t70.5 29t30.5 70t-30 69.5t-70 28.5t-69.5 -28.5t-29.5 -69.5z" />
<glyph unicode="&#xe6;" horiz-adv-x="1579" d="M65 242q0 114 80 177.5t239 106.5q18 5 54.5 14t52.5 13.5t42.5 13.5t41 16.5t29.5 19.5t25 26q-1 79 -59 121t-141 43q-127 4 -241 -93l-62 100q154 113 323 113q102 0 184 -39.5t121 -119.5q63 80 157.5 122t200.5 40q85 -2 161 -33.5t137 -91.5t92.5 -160.5 t21.5 -228.5l-708 1q13 -135 96.5 -210t212.5 -78q167 -3 287 107l77 -108q-163 -133 -373 -127q-203 6 -331 139v-126h-150l-3 131q-132 -147 -294 -147q-114 0 -193.5 70t-79.5 188zM225 247q0 -63 46 -103t117 -40q64 1 127.5 38.5t113.5 99.5v274q-20 -17 -51 -32.5 t-53.5 -23.5t-70.5 -24q-45 -15 -68.5 -24t-59.5 -27t-54 -35t-32.5 -44t-14.5 -59zM818 521l555 -1q3 113 -68 190t-192 81q-118 5 -198 -65.5t-97 -204.5z" />
<glyph unicode="&#xe7;" horiz-adv-x="868" d="M53 449q0 205 134.5 335t337.5 130q136 0 257 -64l-59 -123q-85 54 -185 54q-139 0 -233.5 -93.5t-94.5 -238.5q0 -144 94.5 -237t234.5 -93q123 0 219 76l72 -116q-114 -75 -251 -89l-25 -55q66 -14 107.5 -51t41.5 -98q0 -77 -80.5 -125t-267.5 -47v93q184 10 184 85 q0 32 -34 55.5t-107 26.5l72 116q-179 19 -298 142t-119 317z" />
<glyph unicode="&#xe8;" horiz-adv-x="975" d="M54 474q4 136 69 238.5t165.5 153t218.5 47.5q68 -2 130 -21t117.5 -60t94.5 -99.5t58.5 -144.5t11.5 -189l-708 2q13 -135 96.5 -210.5t213.5 -78.5q166 -3 287 107l76 -108q-161 -133 -373 -127q-209 6 -336.5 145.5t-120.5 344.5zM213 518l556 -1q2 113 -69 190.5 t-192 81.5q-118 4 -197.5 -66.5t-97.5 -204.5zM321 1377h216l147 -252h-108z" />
<glyph unicode="&#xe9;" horiz-adv-x="975" d="M54 474q4 136 69 238.5t165.5 153t218.5 47.5q68 -2 130 -21t117.5 -60t94.5 -99.5t58.5 -144.5t11.5 -189l-708 2q13 -135 96.5 -210.5t213.5 -78.5q166 -3 287 107l76 -108q-161 -133 -373 -127q-209 6 -336.5 145.5t-120.5 344.5zM213 518l556 -1q2 113 -69 190.5 t-192 81.5q-118 4 -197.5 -66.5t-97.5 -204.5zM358 1096l147 252h216l-255 -252h-108z" />
<glyph unicode="&#xea;" horiz-adv-x="975" d="M54 474q4 136 69 238.5t165.5 153t218.5 47.5q68 -2 130 -21t117.5 -60t94.5 -99.5t58.5 -144.5t11.5 -189l-708 2q13 -135 96.5 -210.5t213.5 -78.5q166 -3 287 107l76 -108q-161 -133 -373 -127q-209 6 -336.5 145.5t-120.5 344.5zM213 518l556 -1q2 113 -69 190.5 t-192 81.5q-118 4 -197.5 -66.5t-97.5 -204.5zM242 1081l167 274h217l167 -274h-124l-151 184l-152 -184h-124z" />
<glyph unicode="&#xeb;" horiz-adv-x="975" d="M54 474q4 136 69 238.5t165.5 153t218.5 47.5q68 -2 130 -21t117.5 -60t94.5 -99.5t58.5 -144.5t11.5 -189l-708 2q13 -135 96.5 -210.5t213.5 -78.5q166 -3 287 107l76 -108q-161 -133 -373 -127q-209 6 -336.5 145.5t-120.5 344.5zM213 518l556 -1q2 113 -69 190.5 t-192 81.5q-118 4 -197.5 -66.5t-97.5 -204.5zM253 1135v183h184v-183h-184zM595 1135v183h184v-183h-184z" />
<glyph unicode="&#xec;" horiz-adv-x="400" d="M7 1377h216l147 -252h-108zM119 0v900h161v-900h-161z" />
<glyph unicode="&#xed;" horiz-adv-x="400" d="M44 1096l147 252h216l-255 -252h-108zM119 0v900h161v-900h-161z" />
<glyph unicode="&#xee;" horiz-adv-x="400" d="M-72 1081l167 274h217l167 -274h-124l-151 184l-152 -184h-124zM119 0v900h161v-900h-161z" />
<glyph unicode="&#xef;" horiz-adv-x="400" d="M-60 1135v183h183v-183h-183zM119 0v900h161v-900h-161zM282 1135v183h183v-183h-183z" />
<glyph unicode="&#xf0;" horiz-adv-x="1071" d="M32 488q28 181 163 288t318 77q92 -15 164 -63.5t115 -110.5q-33 191 -150 351l-132 -108l-83 102l130 105q-79 83 -186 153l91 121q116 -74 213 -177l140 114l83 -101l-139 -114q120 -162 170 -349.5t21 -368.5q-36 -224 -183 -346t-348 -90q-92 14 -170.5 59.5 t-132 112.5t-77 157t-7.5 188zM190 459q-20 -128 51.5 -228.5t197.5 -119.5q125 -19 221 53t117 196q21 129 -53 230t-197 122q-122 20 -220 -53t-117 -200z" />
<glyph unicode="&#xf1;" horiz-adv-x="1032" d="M124 0v900h158v-174q61 86 143 137t179 51q134 0 225 -94.5t91 -256.5v-563h-158v549q0 115 -57.5 172t-140.5 57q-81 0 -155.5 -53t-126.5 -135v-590h-158zM207 1173q13 87 66.5 132t125.5 45q51 0 105 -24.5t104 -49t91 -24.5q80 0 106 83l95 -16q-8 -94 -63 -144.5 t-133 -50.5q-50 0 -104 24t-103.5 47.5t-91.5 22.5q-81 0 -102 -70z" />
<glyph unicode="&#xf2;" horiz-adv-x="1045" d="M53 451q0 141 65 248.5t171.5 163t235.5 55.5q96 0 180.5 -32.5t148.5 -91.5t101 -148.5t37 -197.5q0 -212 -135.5 -339t-334.5 -127q-203 0 -336 131.5t-133 337.5zM214 450q0 -144 85.5 -240.5t221.5 -96.5q137 0 223.5 97t86.5 240q0 144 -86 240.5t-223 96.5 t-222.5 -96.5t-85.5 -240.5zM329 1377h217l146 -252h-108z" />
<glyph unicode="&#xf3;" horiz-adv-x="1045" d="M53 451q0 141 65 248.5t171.5 163t235.5 55.5q96 0 180.5 -32.5t148.5 -91.5t101 -148.5t37 -197.5q0 -212 -135.5 -339t-334.5 -127q-203 0 -336 131.5t-133 337.5zM214 450q0 -144 85.5 -240.5t221.5 -96.5q137 0 223.5 97t86.5 240q0 144 -86 240.5t-223 96.5 t-222.5 -96.5t-85.5 -240.5zM366 1096l147 252h216l-255 -252h-108z" />
<glyph unicode="&#xf4;" horiz-adv-x="1045" d="M53 451q0 141 65 248.5t171.5 163t235.5 55.5q96 0 180.5 -32.5t148.5 -91.5t101 -148.5t37 -197.5q0 -212 -135.5 -339t-334.5 -127q-203 0 -336 131.5t-133 337.5zM214 450q0 -144 85.5 -240.5t221.5 -96.5q137 0 223.5 97t86.5 240q0 144 -86 240.5t-223 96.5 t-222.5 -96.5t-85.5 -240.5zM251 1081l166 274h218l166 -274h-123l-152 184l-152 -184h-123z" />
<glyph unicode="&#xf5;" horiz-adv-x="1045" d="M53 451q0 141 65 248.5t171.5 163t235.5 55.5q96 0 180.5 -32.5t148.5 -91.5t101 -148.5t37 -197.5q0 -212 -135.5 -339t-334.5 -127q-203 0 -336 131.5t-133 337.5zM179 1173q13 87 66.5 132t126.5 45q51 0 105 -24.5t104 -49t91 -24.5q80 0 106 83l95 -16 q-8 -94 -63.5 -144.5t-133.5 -50.5q-50 0 -104 24t-103.5 47.5t-91.5 22.5q-81 0 -102 -70zM214 450q0 -144 85.5 -240.5t221.5 -96.5q137 0 223.5 97t86.5 240q0 144 -86 240.5t-223 96.5t-222.5 -96.5t-85.5 -240.5z" />
<glyph unicode="&#xf6;" horiz-adv-x="1045" d="M53 451q0 141 65 248.5t171.5 163t235.5 55.5q96 0 180.5 -32.5t148.5 -91.5t101 -148.5t37 -197.5q0 -212 -135.5 -339t-334.5 -127q-203 0 -336 131.5t-133 337.5zM214 450q0 -144 85.5 -240.5t221.5 -96.5q137 0 223.5 97t86.5 240q0 144 -86 240.5t-223 96.5 t-222.5 -96.5t-85.5 -240.5zM262 1135v183h183v-183h-183zM604 1135v183h183v-183h-183z" />
<glyph unicode="&#xf8;" horiz-adv-x="1045" d="M53 451q0 141 65 248.5t171.5 163t235.5 55.5q85 0 158 -24l144 272h151l-175 -331q88 -61 138.5 -160t50.5 -227q0 -212 -135.5 -339t-334.5 -127q-85 0 -158 24l-141 -268h-152l173 327q-90 62 -140.5 162t-50.5 224zM214 450q0 -158 99 -255l306 577q-50 15 -97 15 q-137 0 -222.5 -96.5t-85.5 -240.5zM428 127q45 -14 93 -14q137 0 223.5 97t86.5 240q0 155 -98 253z" />
<glyph unicode="&#xf9;" horiz-adv-x="1018" d="M107 323v577h157v-570q0 -58 17 -100.5t46 -65.5t60.5 -33.5t65.5 -10.5q75 0 148.5 46.5t135.5 130.5v603h157v-900h-153l-4 168q-66 -83 -156 -132.5t-185 -49.5q-56 0 -105.5 18.5t-91.5 56t-67 105t-25 157.5zM306 1377h216l147 -252h-108z" />
<glyph unicode="&#xfa;" horiz-adv-x="1018" d="M107 323v577h157v-570q0 -58 17 -100.5t46 -65.5t60.5 -33.5t65.5 -10.5q75 0 148.5 46.5t135.5 130.5v603h157v-900h-153l-4 168q-66 -83 -156 -132.5t-185 -49.5q-56 0 -105.5 18.5t-91.5 56t-67 105t-25 157.5zM343 1096l146 252h217l-255 -252h-108z" />
<glyph unicode="&#xfb;" horiz-adv-x="1018" d="M107 323v577h157v-570q0 -58 17 -100.5t46 -65.5t60.5 -33.5t65.5 -10.5q75 0 148.5 46.5t135.5 130.5v603h157v-900h-153l-4 168q-66 -83 -156 -132.5t-185 -49.5q-56 0 -105.5 18.5t-91.5 56t-67 105t-25 157.5zM227 1081l167 274h217l167 -274h-124l-151 184 l-152 -184h-124z" />
<glyph unicode="&#xfc;" horiz-adv-x="1018" d="M107 323v577h157v-570q0 -58 17 -100.5t46 -65.5t60.5 -33.5t65.5 -10.5q75 0 148.5 46.5t135.5 130.5v603h157v-900h-153l-4 168q-66 -83 -156 -132.5t-185 -49.5q-56 0 -105.5 18.5t-91.5 56t-67 105t-25 157.5zM238 1135v183h184v-183h-184zM580 1135v183h184v-183 h-184z" />
<glyph unicode="&#xfd;" horiz-adv-x="1005" d="M21 900h168l301 -707l326 707h172l-528 -1119q-55 -117 -146.5 -175.5t-208.5 -50.5l1 135q149 -6 222 149l82 175zM333 1096l146 252h217l-255 -252h-108z" />
<glyph unicode="&#xfe;" horiz-adv-x="1061" d="M129 -462v1848h174v-536q123 66 242 66q90 0 170 -28.5t144 -83.5t101.5 -145t37.5 -204q0 -144 -58.5 -252t-155.5 -163t-217 -55q-139 0 -264 78v-525h-174zM303 197q108 -84 232 -84q136 0 218 97.5t83 244.5q1 156 -92 249.5t-231 93.5q-104 0 -210 -72v-529z" />
<glyph unicode="&#xff;" horiz-adv-x="1005" d="M21 900h168l301 -707l326 707h172l-528 -1119q-55 -117 -146.5 -175.5t-208.5 -50.5l1 135q149 -6 222 149l82 175zM228 1135v183h184v-183h-184zM570 1135v183h184v-183h-184z" />
<glyph unicode="&#x152;" horiz-adv-x="2305" d="M82 692q0 164 56 302t152 230t223.5 143t269.5 51q169 0 314 -68t243 -192v228h848v-136h-693v-472h569v-136h-569v-506h693v-136h-848v225q-99 -123 -244.5 -190t-312.5 -67q-147 0 -275.5 52t-222.5 145.5t-148.5 229.5t-54.5 297zM249 692q0 -165 64.5 -298 t187.5 -211.5t283 -78.5t283.5 76.5t190.5 210t67 301.5q0 258 -154 424t-387 166q-232 0 -383.5 -166.5t-151.5 -423.5z" />
<glyph unicode="&#x153;" horiz-adv-x="1749" d="M53 444q0 141 65 249t171.5 163.5t235.5 55.5q119 0 219.5 -49t163.5 -139q62 89 161 136.5t212 45.5q68 -2 130.5 -21t118 -60t94.5 -99.5t58 -144.5t11 -189l-703 2l-2 -20q18 -126 100 -195.5t207 -72.5q168 -3 287 107l77 -109q-162 -132 -374 -127q-120 4 -216 54 t-157 137q-63 -92 -165.5 -142.5t-224.5 -50.5q-203 0 -336 131.5t-133 337.5zM214 443q0 -144 85.5 -240t221.5 -96q128 0 212.5 84.5t95.5 215.5q-2 40 -1 61l1 18q-13 128 -97 211t-210 83q-137 0 -222.5 -96.5t-85.5 -240.5zM987 512l556 -2q2 114 -69 191t-192 81 q-118 4 -197.5 -66.5t-97.5 -203.5z" />
<glyph unicode="&#x178;" horiz-adv-x="1140" d="M-22 1386h177l411 -657l419 657h176l-511 -801v-585h-161v577zM312 1604v183h184v-183h-184zM654 1604v183h184v-183h-184z" />
<glyph unicode="&#x2c6;" horiz-adv-x="798" d="M403 1539l166 273h218l166 -273h-123l-152 184l-152 -184h-123z" />
<glyph unicode="&#x2dc;" horiz-adv-x="688" d="M340 1631q13 87 66.5 132t126.5 45q51 0 105 -24.5t104 -49t91 -24.5q81 0 106 83l95 -16q-8 -94 -63 -144.5t-133 -50.5q-41 0 -84 15t-73.5 32.5t-70 32t-72.5 14.5q-81 0 -101 -70z" />
<glyph unicode="&#x2000;" horiz-adv-x="963" />
<glyph unicode="&#x2001;" horiz-adv-x="1926" />
<glyph unicode="&#x2002;" horiz-adv-x="963" />
<glyph unicode="&#x2003;" horiz-adv-x="1926" />
<glyph unicode="&#x2004;" horiz-adv-x="642" />
<glyph unicode="&#x2005;" horiz-adv-x="481" />
<glyph unicode="&#x2006;" horiz-adv-x="321" />
<glyph unicode="&#x2007;" horiz-adv-x="321" />
<glyph unicode="&#x2008;" horiz-adv-x="240" />
<glyph unicode="&#x2009;" horiz-adv-x="385" />
<glyph unicode="&#x200a;" horiz-adv-x="107" />
<glyph unicode="&#x2010;" horiz-adv-x="709" d="M43 503v131h623v-131h-623z" />
<glyph unicode="&#x2011;" horiz-adv-x="709" d="M43 503v131h623v-131h-623z" />
<glyph unicode="&#x2012;" horiz-adv-x="709" d="M43 503v131h623v-131h-623z" />
<glyph unicode="&#x2013;" horiz-adv-x="1070" d="M43 503v131h984v-131h-984z" />
<glyph unicode="&#x2014;" horiz-adv-x="1767" d="M43 503v131h1681v-131h-1681z" />
<glyph unicode="&#x2018;" horiz-adv-x="261" d="M23 1054v170q1 85 54.5 150.5t144.5 78.5v-60q-95 -33 -93 -144h86v-195h-192z" />
<glyph unicode="&#x2019;" horiz-adv-x="261" d="M39 1022v60q93 31 93 143h-86v196h192l-1 -171q0 -84 -53.5 -150t-144.5 -78z" />
<glyph unicode="&#x201a;" horiz-adv-x="273" d="M35 -143q94 32 92 143h-85v195h191v-170q0 -84 -54 -150t-144 -78v60z" />
<glyph unicode="&#x201c;" horiz-adv-x="516" d="M23 1053v170q1 85 54.5 150.5t144.5 78.5v-60q-95 -33 -93 -144h86v-195h-192zM278 1053v170q1 84 54.5 150t143.5 79v-60q-93 -33 -92 -144h85v-195h-191z" />
<glyph unicode="&#x201d;" horiz-adv-x="516" d="M39 1023v59q93 33 93 144h-86v195h192l-1 -170q0 -84 -53.5 -150t-144.5 -78zM294 1023v59q93 33 93 144h-86v195h191v-170q0 -84 -54 -150t-144 -78z" />
<glyph unicode="&#x201e;" horiz-adv-x="528" d="M35 -143q94 32 92 143h-85v195h191v-170q0 -84 -54 -150t-144 -78v60zM290 -143q94 32 92 143h-86v195h192v-170q-1 -84 -54.5 -150t-143.5 -78v60z" />
<glyph unicode="&#x2022;" horiz-adv-x="537" d="M131 588v275h275v-275h-275z" />
<glyph unicode="&#x2026;" horiz-adv-x="1289" d="M104 81h185v-194h-185v194zM491 81h185v-194h-185v194zM877 81h185v-194h-185v194z" />
<glyph unicode="&#x202f;" horiz-adv-x="385" />
<glyph unicode="&#x2039;" horiz-adv-x="561" d="M29 498l313 491h170l-314 -492l315 -497h-168z" />
<glyph unicode="&#x203a;" horiz-adv-x="561" d="M40 0l315 497l-314 492h170l313 -491l-316 -498h-168z" />
<glyph unicode="&#x205f;" horiz-adv-x="481" />
<glyph unicode="&#x20ac;" horiz-adv-x="1173" d="M-4 515v128h92q-1 17 -1 50v37h-91v128h104q31 178 128 307t230 191t287 62q177 4 346 -83l-56 -129q-141 77 -288 76q-189 0 -315.5 -116t-166.5 -308h489v-128h-504l-1 -39q0 -32 1 -48h504v-128h-487q42 -190 168.5 -298t306.5 -108q169 -3 315 90l62 -129 q-184 -102 -386 -97q-238 0 -410.5 143t-220.5 399h-106z" />
<glyph unicode="&#x25fc;" horiz-adv-x="900" d="M0 0v900h900v-900h-900z" />
</font>
</defs>
</svg>
