<?xml version="1.0" encoding="UTF-8" standalone="no"?>
<svg viewBox="0 0 72 13" version="1.1" xmlns="http://www.w3.org/2000/svg" xmlns:xlink="http://www.w3.org/1999/xlink">
    <title>arrow-right</title>
    <g stroke="none" stroke-width="1" fill="none" fill-rule="evenodd">
        <g id="arrow-right">
            <g id="arrow">
                <path d="M61.848,6.297 L58.094,6.297" stroke="#3A3B3D" stroke-width="1.2516" ></path>
                <path d="M50.546,6.297 L9.033,6.297" stroke="#3A3B3D" stroke-width="1.2516" stroke-dasharray="7.5477,7.5477" ></path>
                <path d="M5.259,6.297 L1.505,6.297" stroke="#3A3B3D" stroke-width="1.2516" ></path>
                <path d="M61.34,6.917 L64.379,12.18 L65.803,12.18 L62.764,6.917 L64.188,6.917 L67.227,12.18 L68.652,12.18 L65.612,6.917 L67.036,6.917 L70.076,12.18 L71.5,12.18 L68.46,6.917 L69.917,6.917 L69.917,5.676 L68.46,5.676 L71.5,0.413 L70.076,0.413 L67.036,5.676 L65.612,5.676 L68.652,0.413 L67.227,0.413 L64.188,5.676 L62.764,5.676 L65.803,0.413 L64.379,0.413 L61.34,5.676 L61.34,6.917 Z" fill="#58595B" ></path>
                <path d="M10.058,0.29 C10.244,0.581 10.158,0.968 9.867,1.154 L1.791,6.297 L9.867,11.44 C10.159,11.626 10.244,12.013 10.058,12.304 C9.872,12.595 9.483,12.679 9.194,12.496 L0.29,6.825 C0.109,6.71 0,6.511 0,6.297 C0,6.083 0.109,5.884 0.29,5.769 L9.195,0.098 C9.298,0.032 9.415,0 9.53,0 C9.736,0 9.938,0.103 10.058,0.29 L10.058,0.29 Z" fill="#58595B"></path>
            </g>
        </g>
    </g>
</svg>